<?xml version="1.0" encoding="utf-8"?>
<!-- Generator: Adobe Illustrator 22.1.0, SVG Export Plug-In . SVG Version: 6.00 Build 0)  -->
<svg version="1.1" id="Layer_1" xmlns="http://www.w3.org/2000/svg" xmlns:xlink="http://www.w3.org/1999/xlink" x="0px" y="0px"
	 viewBox="0 0 1280 1024" style="enable-background:new 0 0 1280 1024;" xml:space="preserve">
<style type="text/css">
	.st0{font-family:'ArialRoundedMTBold';}
	.st1{font-size:101.8407px;}
	.st2{fill:#FFFFFF;stroke:#660000;stroke-width:3;stroke-miterlimit:10;}
	.st3{fill:#660000;}
	.st4{fill:none;stroke:#660000;stroke-width:3;stroke-miterlimit:10;}
	.st5{fill:#660000;stroke:#660000;stroke-width:3;stroke-miterlimit:10;}
	.st6{fill:none;stroke:#FF0000;stroke-width:3;stroke-miterlimit:10;}
	.st7{fill:none;stroke:#3300FF;stroke-width:3;stroke-miterlimit:10;}
	.st8{fill:none;stroke:#000000;stroke-width:3;stroke-miterlimit:10;}
	.st9{stroke:#000000;stroke-width:3;stroke-miterlimit:10;}
    
       #op{
      animation-name: opac;
    animation-duration: 1.5s;
    animation-fill-mode: forwards;
    }
      @keyframes opac{
        0%{stroke-opacity: 0;
            fill-opacity:"0"}
        60%{stroke-opacity: 0.5;
    fill-opacity:"0.5"
    }
    100%{stroke-opacity: 1;
    fill-opacity:"1"}
        }
</style>
<text transform="matrix(0.7338 0 0 1 18 96.5186)" class="st0 st1">Alternating Voltage and Current</text>
<ellipse class="st2" cx="203.6" cy="569.6" rx="59.4" ry="68.6"/>
<g>
	<g>
		<path class="st3" d="M167.3,597.1c1-12.2,2.7-24.7,6.3-36.2c0.8-2.9,2-5.9,3.3-8.6c2.5-6.3,5.9-7.5,10.4-3.4
			c7.1,3.2,7.4,5.9,9.8,14c3.9,13.4,6.9,31.3,19.4,37.8c29.2,15.9,29.4-44.8,29.2-61.6c0-4.3-5.9-4.3-5.9,0
			c0,12.2-0.4,75.9-24.5,52.6c-12.1-11.8-9.2-33.8-19.2-47.1c-6.7-8.8-16.3-7.2-22.5,1.6c-9.4,13.1-10.8,34.7-12.1,51
			C161.1,601.4,166.9,601.4,167.3,597.1L167.3,597.1z"/>
	</g>
</g>
<line class="st4" x1="203.6" y1="365" x2="203.6" y2="501"/>
<line class="st4" x1="203.6" y1="638" x2="203.6" y2="773.9"/>
<ellipse class="st5" cx="203.6" cy="362.8" rx="8.4" ry="9.7"/>
<ellipse cx="203.6" cy="776.2" rx="8.4" ry="9.7"/>
<line class="st6" x1="97.8" y1="358" x2="143.8" y2="358"/>
<line class="st7" x1="97.1" y1="760.7" x2="144.5" y2="760.7"/>
<line class="st7" x1="120.8" y1="785.9" x2="120.8" y2="735.6"/>
<line id="op" class="st8" x1="203.6" y1="353.1" x2="203.6" y2="238"/>
<line id="op"  class="st8" x1="203.6" y1="891.3" x2="203.6" y2="776.2"/>
<line id="op"  class="st8" x1="203.6" y1="240" x2="441" y2="240"/>
<line id="op" class="st8" x1="202.6" y1="890.3" x2="440" y2="890.3"/>
<path class="st8" d="M439.3,239.3l0,237.4"/>
<line id="op" class="st8" x1="438.3" y1="888.7" x2="438.3" y2="651.3"/>
<g>
	<polyline id="op" class="st8" points="437.4,652.2 485.5,630 437.6,607.4 485.7,585.2 437.9,562.5 486,540.4 438.1,517.7 486.2,495.5 
		438.3,472.9 	"/>
</g>
<ellipse id="op" class="st9" cx="440" cy="446.8" rx="8.4" ry="9.7"/>
<ellipse id="op" class="st9" cx="439" cy="681.8" rx="8.4" ry="9.7"/>
</svg>
