<?xml version="1.0" encoding="utf-8"?>
<!-- Generator: Adobe Illustrator 22.1.0, SVG Export Plug-In . SVG Version: 6.00 Build 0)  -->
<svg version="1.1" id="Layer_1" xmlns="http://www.w3.org/2000/svg" xmlns:xlink="http://www.w3.org/1999/xlink" x="0px" y="0px"
	 viewBox="0 0 1280 1024" style="enable-background:new 0 0 1280 1024;" xml:space="preserve">
<style type="text/css">
	.st0{font-family:'ArialRoundedMTBold';}
	.st1{font-size:21.1197px;}
	.st2{font-size:42.2393px;}
	.st3{font-size:44.8529px;}
	.st4{fill:#FFFFFF;}
	.st5{stroke:#000000;stroke-width:3;stroke-miterlimit:10;}
	.st6{fill:none;stroke:#000000;stroke-width:7;stroke-miterlimit:10;}
	.st7{fill:none;stroke:#000000;stroke-width:5;stroke-miterlimit:10;}
	.st8{fill:none;stroke:#000000;stroke-width:6;stroke-miterlimit:10;}
	.st9{stroke:#000000;stroke-width:10;stroke-miterlimit:10;}
	.st10{fill:none;stroke:#000000;stroke-width:10;stroke-miterlimit:10;}
	.st11{fill:none;stroke:#000000;stroke-width:3;stroke-miterlimit:10;}
	.st12{font-size:36px;}
	.st13{fill:none;stroke:#000000;stroke-width:3;stroke-miterlimit:10;stroke-dasharray:12,12;}
	.st14{fill:none;stroke:#000000;stroke-width:3;stroke-miterlimit:10;stroke-dasharray:11.8947,11.8947;}
	.st15{font-size:63.1532px;}
	.st16{font-size:31.7355px;}
</style>
<text transform="matrix(0.7676 0 0 1 1017.207 462.5449)" class="st0 st1">L</text>
<text transform="matrix(0.7676 0 0 1 918.666 456.0918)" class="st0 st2">Load R</text>
<text transform="matrix(1.0121 0 0 1 776.333 217.7275)" class="st0 st3">Diode</text>
<g>
	<circle class="st4" cx="149.5" cy="440.5" r="51"/>
	<path d="M149.5,392c26.7,0,48.5,21.8,48.5,48.5S176.2,489,149.5,489S101,467.2,101,440.5S122.8,392,149.5,392 M149.5,387
		C120,387,96,411,96,440.5s24,53.5,53.5,53.5c29.5,0,53.5-24,53.5-53.5S179,387,149.5,387L149.5,387z"/>
</g>
<g>
	<g>
		<path d="M125.7,459.6c0.7-8.6,1.8-17.4,4.2-25.6c0.5-2.1,1.3-4.2,2.2-6.1c1.7-4.5,3.9-5.3,6.9-2.4c4.7,2.2,5,4.2,6.5,9.9
			c2.6,9.4,4.6,22.1,12.9,26.7c19.5,11.2,19.6-31.7,19.5-43.5c0-3-3.9-3-3.9,0c0,8.6-0.3,53.6-16.3,37.1
			c-8.1-8.3-6.1-23.8-12.8-33.3c-4.4-6.2-10.8-5.1-15,1.1c-6.3,9.3-7.2,24.5-8.1,36C121.5,462.6,125.5,462.6,125.7,459.6
			L125.7,459.6z"/>
	</g>
</g>
<g>
	<g>
		<path class="st5" d="M367.6,169c21.2,4.5,63.3,6.6,64.3,46c0.4,15.8-8.7,27.8-18.2,35.4c-12.1,9.5-26.2,14.1-40.2,15.4
			c-1.9,0.1-1.9,4.1,0,4c15.1-1.5,30.7-6.5,43.5-17.5c9.4-8.1,17.7-20.2,17.9-35.8c0.6-43.2-43.7-46.5-66.5-51.4
			C366.5,164.9,365.7,168.6,367.6,169L367.6,169z"/>
	</g>
</g>
<g>
	<g>
		<path class="st5" d="M367.6,269.7c21.2,4.5,63.3,6.6,64.3,46c0.4,15.8-8.7,27.8-18.2,35.4c-12.1,9.5-26.2,14.1-40.2,15.4
			c-1.9,0.1-1.9,4.1,0,4c15.1-1.5,30.7-6.5,43.5-17.5c9.4-8.1,17.7-20.2,17.9-35.8c0.6-43.2-43.7-46.5-66.5-51.4
			C366.5,265.6,365.7,269.3,367.6,269.7L367.6,269.7z"/>
	</g>
</g>
<g>
	<g>
		<path class="st5" d="M374.6,370.5c21.2,4.5,63.3,6.6,64.3,46c0.4,15.8-8.7,27.8-18.2,35.4c-12.1,9.5-26.2,14.1-40.2,15.4
			c-1.9,0.1-1.9,4.1,0,4c15.1-1.5,30.7-6.5,43.5-17.5c9.4-8.1,17.7-20.2,17.9-35.8c0.6-43.2-43.7-46.5-66.5-51.4
			C373.5,366.4,372.7,370.1,374.6,370.5L374.6,370.5z"/>
	</g>
</g>
<g>
	<g>
		<path class="st5" d="M374.6,471.2c21.2,4.5,63.3,6.6,64.3,46c0.4,15.8-8.7,27.8-18.2,35.4c-12.1,9.5-26.2,14.1-40.2,15.4
			c-1.9,0.1-1.9,4.1,0,4c15.1-1.5,30.7-6.5,43.5-17.5c9.4-8.1,17.7-20.2,17.9-35.8c0.6-43.2-43.7-46.5-66.5-51.4
			C373.5,467.1,372.7,470.8,374.6,471.2L374.6,471.2z"/>
	</g>
</g>
<g>
	<g>
		<path class="st5" d="M382.6,572.2c21.2,4.5,63.3,6.6,64.3,46c0.4,15.8-8.7,27.8-18.2,35.4c-12.1,9.5-26.2,14.1-40.2,15.4
			c-1.9,0.1-1.9,4.1,0,4c15.1-1.5,30.7-6.5,43.5-17.5c9.4-8.1,17.7-20.2,17.9-35.8c0.6-43.2-43.7-46.5-66.5-51.4
			C381.5,568.1,380.7,571.8,382.6,572.2L382.6,572.2z"/>
	</g>
</g>
<g>
	<g>
		<path class="st5" d="M386.6,674.2c21.2,4.5,63.3,6.6,64.3,46c0.4,15.8-8.7,27.8-18.2,35.4c-12.1,9.5-26.2,14.1-40.2,15.4
			c-1.9,0.1-1.9,4.1,0,4c15.1-1.5,30.7-6.5,43.5-17.5c9.4-8.1,17.7-20.2,17.9-35.8c0.6-43.2-43.7-46.5-66.5-51.4
			C385.5,670.1,384.7,673.8,386.6,674.2L386.6,674.2z"/>
	</g>
</g>
<g>
	<g>
		<path class="st5" d="M601.8,669c-21.2-4.5-63.3-6.6-64.3-46c-0.4-15.8,8.7-27.8,18.2-35.4c12.1-9.5,26.2-14.1,40.2-15.4
			c1.9-0.1,1.9-4.1,0-4c-15.1,1.5-30.7,6.5-43.5,17.5c-9.4,8.1-17.7,20.2-17.9,35.8c-0.6,43.2,43.7,46.5,66.5,51.4
			C602.9,673.1,603.7,669.4,601.8,669L601.8,669z"/>
	</g>
</g>
<g>
	<g>
		<path class="st5" d="M601.8,568.3c-21.2-4.5-63.3-6.6-64.3-46c-0.4-15.8,8.7-27.8,18.2-35.4c12.1-9.5,26.2-14.1,40.2-15.4
			c1.9-0.1,1.9-4.1,0-4c-15.1,1.5-30.7,6.5-43.5,17.5c-9.4,8.1-17.7,20.2-17.9,35.8c-0.6,43.2,43.7,46.5,66.5,51.4
			C602.9,572.4,603.7,568.7,601.8,568.3L601.8,568.3z"/>
	</g>
</g>
<g>
	<g>
		<path class="st5" d="M593.8,467.3c-21.2-4.5-63.3-6.6-64.3-46c-0.4-15.8,8.7-27.8,18.2-35.4c12.1-9.5,26.2-14.1,40.2-15.4
			c1.9-0.1,1.9-4.1,0-4c-15.1,1.5-30.7,6.5-43.5,17.5c-9.4,8.1-17.7,20.2-17.9,35.8c-0.6,43.2,43.7,46.5,66.5,51.4
			C594.9,471.4,595.7,467.7,593.8,467.3L593.8,467.3z"/>
	</g>
</g>
<g>
	<g>
		<path class="st5" d="M589.8,365.3c-21.2-4.5-63.3-6.6-64.3-46c-0.4-15.8,8.7-27.8,18.2-35.4c12.1-9.5,26.2-14.1,40.2-15.4
			c1.9-0.1,1.9-4.1,0-4c-15.1,1.5-30.7,6.5-43.5,17.5c-9.4,8.1-17.7,20.2-17.9,35.8c-0.6,43.2,43.7,46.5,66.5,51.4
			C590.9,369.4,591.7,365.7,589.8,365.3L589.8,365.3z"/>
	</g>
</g>
<line class="st6" x1="470" y1="280" x2="468" y2="650"/>
<line class="st6" x1="497.5" y1="280" x2="495.5" y2="650"/>
<line class="st7" x1="149.5" y1="165.5" x2="368.5" y2="166.5"/>
<line class="st7" x1="149.5" y1="386.5" x2="149.5" y2="164.5"/>
<line class="st7" x1="392" y1="773.5" x2="149.5" y2="777.5"/>
<line class="st7" x1="149.5" y1="777.5" x2="149.5" y2="489"/>
<line class="st8" x1="583.5" y1="267.5" x2="1062" y2="267"/>
<line class="st8" x1="601" y1="671" x2="1063" y2="670"/>
<g>
	<polyline id="op_5_" class="st7" points="1062.4,546.2 1110.5,524 1062.6,501.4 1110.7,479.2 1062.9,456.5 1111,434.4 
		1063.1,411.7 1111.2,389.5 1063.3,366.9 	"/>
</g>
<line class="st7" x1="1062.5" y1="546.5" x2="1062.5" y2="670.5"/>
<line class="st8" x1="1062" y1="266" x2="1063" y2="367"/>
<polygon class="st9" points="791.7,242.1 791.7,297.4 845,269.7 "/>
<line class="st10" x1="703" y1="268.1" x2="942" y2="270.1"/>
<line class="st10" x1="849.8" y1="225.8" x2="849.8" y2="315"/>
<circle cx="149.5" cy="276.5" r="10.5"/>
<circle cx="149.5" cy="589.5" r="10.5"/>
<circle cx="692.5" cy="268.5" r="10.5"/>
<circle cx="949.5" cy="267.5" r="10.5"/>
<circle cx="1062.5" cy="359.5" r="10.5"/>
<circle cx="1062.5" cy="556.5" r="10.5"/>
<line class="st11" x1="226" y1="275" x2="226" y2="387"/>
<line class="st11" x1="226.5" y1="478" x2="226.5" y2="590"/>
<text transform="matrix(1 0 0 1 212.6665 448.3335)" class="st0 st12">Vab</text>
<text transform="matrix(1 0 0 1 171.3335 287)" class="st0 st12">a</text>
<text transform="matrix(1 0 0 1 171.6665 600)" class="st0 st12">b</text>
<line class="st11" x1="1159.5" y1="348.5" x2="1159.5" y2="437"/>
<line class="st11" x1="1159.5" y1="499" x2="1159.5" y2="569.5"/>
<text transform="matrix(1 0 0 1 1143 478)" class="st0 st12">Vo</text>
<g>
	<g>
		<polyline class="st11" points="621,806 621,812 615,812 		"/>
		<line class="st13" x1="603" y1="812" x2="345" y2="812"/>
		<polyline class="st11" points="339,812 333,812 333,806 		"/>
		<line class="st14" x1="333" y1="794.1" x2="333" y2="133.9"/>
		<polyline class="st11" points="333,128 333,122 339,122 		"/>
		<line class="st13" x1="351" y1="122" x2="609" y2="122"/>
		<polyline class="st11" points="615,122 621,122 621,128 		"/>
		<line class="st14" x1="621" y1="139.9" x2="621" y2="800.1"/>
	</g>
</g>
<text transform="matrix(0.5697 0 0 1 279 890.5371)" class="st0 st15">Step Down Transformer</text>
<text transform="matrix(1.2162 0 0 1 -24.0005 365.4199)"><tspan x="0" y="0" class="st0 st16">AC</tspan><tspan x="0" y="38.1" class="st0 st16">Supply</tspan></text>
</svg>
