<?xml version="1.0" encoding="utf-8"?>
<!-- Generator: Adobe Illustrator 22.1.0, SVG Export Plug-In . SVG Version: 6.00 Build 0)  -->
<svg version="1.1" id="Layer_1" xmlns="http://www.w3.org/2000/svg" xmlns:xlink="http://www.w3.org/1999/xlink" x="0px" y="0px"
	 viewBox="0 0 1280 1024" style="enable-background:new 0 0 1280 1024;" xml:space="preserve">
<style type="text/css">
	.st0{font-family:'ArialRoundedMTBold';}
	.st1{font-size:100.9423px;}
	.st2{font-size:60px;}
	.st3{fill:none;}
	.st4{fill:#FFFFFF;stroke:#000000;stroke-width:5;stroke-miterlimit:10;}
	.st5{fill:#231F20;}
</style>
<text transform="matrix(0.7763 0 0 1 273 115.7075)" class="st0 st1">Half Wave Rectifier</text>
<text transform="matrix(1 0 0 1 112.3335 418.3335)" class="st0 st2">AC</text>
<g>
	<rect x="224.2" y="363.1" class="st3" width="232.8" height="70.5"/>
	<polygon points="370,433.6 457,398.5 370,363.1 370,377.8 224.2,377.8 224.2,419.1 370,419.1 	"/>
</g>
<rect x="472" y="322" class="st4" width="300" height="143"/>
<g>
	<rect x="787.2" y="363.1" class="st3" width="232.8" height="70.5"/>
	<polygon class="st5" points="933,433.6 1020,398.5 933,363.1 933,377.8 787.2,377.8 787.2,419.1 933,419.1 	"/>
</g>
<text transform="matrix(1 0 0 1 1031 418)" class="st0 st2">DC</text>
<text transform="matrix(1 0 0 1 499.3335 415.3335)" class="st0 st2">Rectifier</text>
</svg>
