<?xml version="1.0" encoding="utf-8"?>
<!-- Generator: Adobe Illustrator 22.1.0, SVG Export Plug-In . SVG Version: 6.00 Build 0)  -->
<svg version="1.1" id="Layer_1" xmlns="http://www.w3.org/2000/svg" xmlns:xlink="http://www.w3.org/1999/xlink" x="0px" y="0px"
	 viewBox="0 0 1280 1024" style="enable-background:new 0 0 1280 1024;" xml:space="preserve">
<style type="text/css">
	.st0{font-family:'ArialRoundedMTBold';}
	.st1{font-size:48px;}
	.st2{fill:#FFFFFF;stroke:#660000;stroke-width:3;stroke-miterlimit:10;}
	.st3{fill:#660000;}
	.st4{fill:none;stroke:#660000;stroke-width:3;stroke-miterlimit:10;}
	.st5{fill:#660000;stroke:#660000;stroke-width:3;stroke-miterlimit:10;}
	.st6{fill:none;stroke:#3300FF;stroke-width:3;stroke-miterlimit:10;}
	.st7{font-size:36px;}
	.st8{fill:none;stroke:#FF0000;stroke-width:3;stroke-miterlimit:10;}
</style>
<text transform="matrix(1 0 0 1 307.7368 50)" class="st0 st1">Alternating Voltage and Current</text>
<circle id="move" class="st2" cx="394.3" cy="241.3" r="30.3"/>
<g>
	<g>
		<path class="st3" d="M375.8,253.4c0.5-5.4,1.4-10.9,3.2-16c0.4-1.3,1-2.6,1.7-3.8c1.3-2.8,3-3.3,5.3-1.5c3.6,1.4,3.8,2.6,5,6.2
			c2,5.9,3.5,13.8,9.9,16.7c14.9,7,15-19.8,14.9-27.2c0-1.9-3-1.9-3,0c0,5.4-0.2,33.5-12.5,23.2c-6.2-5.2-4.7-14.9-9.8-20.8
			c-3.4-3.9-8.3-3.2-11.5,0.7c-4.8,5.8-5.5,15.3-6.2,22.5C372.6,255.3,375.6,255.3,375.8,253.4L375.8,253.4z"/>
	</g>
</g>
<line class="st4" x1="394.3" y1="151" x2="394.3" y2="211"/>
<line class="st4" x1="394.3" y1="271.5" x2="394.3" y2="331.5"/>
<circle class="st5" cx="394.3" cy="150" r="4.3"/>
<line class="st6" x1="339.9" y1="151" x2="364.1" y2="151"/>
<line class="st6" x1="352" y1="162.1" x2="352" y2="139.9"/>
<circle cx="394.3" cy="332.5" r="4.3"/>
<text transform="matrix(1 0 0 1 571 448)" class="st0 st7">AC Source</text>
<line class="st8" x1="340.3" y1="336.8" x2="363.8" y2="336.8"/>
</svg>
