<?xml version="1.0" encoding="utf-8"?>
<!-- Generator: Adobe Illustrator 22.1.0, SVG Export Plug-In . SVG Version: 6.00 Build 0)  -->
<svg version="1.1" id="Layer_1" xmlns="http://www.w3.org/2000/svg" xmlns:xlink="http://www.w3.org/1999/xlink" x="0px" y="0px"
	 viewBox="0 0 1280 1024" style="enable-background:new 0 0 1280 1024;" xml:space="preserve">
<style type="text/css">
	.st0{font-family:'ArialRoundedMTBold';}
	.st1{font-size:68.4905px;}
	.st2{fill:#FFFFFF;stroke:#660000;stroke-width:3;stroke-miterlimit:10;}
	.st3{fill:#660000;}
	.st4{fill:none;stroke:#660000;stroke-width:3;stroke-miterlimit:10;}
	.st5{fill:#660000;stroke:#660000;stroke-width:3;stroke-miterlimit:10;}
	.st6{fill:none;stroke:#3300FF;stroke-width:3;stroke-miterlimit:10;}
	.st7{fill:none;stroke:#FF0000;stroke-width:3;stroke-miterlimit:10;}
</style>
<text transform="matrix(0.8462 0 0 1 142 60)" class="st0 st1">Alternating Voltage and Current</text>
<ellipse id="move" class="st2" cx="590.6" cy="341.6" rx="59.4" ry="68.6"/>
<g>
	<g>
		<path class="st3" d="M554.3,369.2c1-12.2,2.7-24.7,6.3-36.2c0.8-2.9,2-5.9,3.3-8.6c2.5-6.3,5.9-7.5,10.4-3.4
			c7.1,3.2,7.4,5.9,9.8,14c3.9,13.4,6.9,31.3,19.4,37.8c29.2,15.9,29.4-44.8,29.2-61.6c0-4.3-5.9-4.3-5.9,0
			c0,12.2-0.4,75.9-24.5,52.6c-12.1-11.8-9.2-33.8-19.2-47.1c-6.7-8.8-16.3-7.2-22.5,1.6c-9.4,13.1-10.8,34.7-12.1,51
			C548.1,373.5,553.9,373.5,554.3,369.2L554.3,369.2z"/>
	</g>
</g>
<line class="st4" x1="590.6" y1="137" x2="590.6" y2="273"/>
<line class="st4" x1="590.6" y1="410" x2="590.6" y2="545.9"/>
<ellipse class="st5" cx="590.6" cy="134.8" rx="8.4" ry="9.7"/>
<line class="st6" x1="484" y1="137" x2="531.4" y2="137"/>
<line class="st6" x1="507.7" y1="162.2" x2="507.7" y2="111.9"/>
<ellipse cx="590.6" cy="548.2" rx="8.4" ry="9.7"/>
<line class="st7" x1="484.8" y1="557.9" x2="530.8" y2="557.9"/>
</svg>
