<?xml version="1.0" encoding="utf-8"?>
<!-- Generator: Adobe Illustrator 22.1.0, SVG Export Plug-In . SVG Version: 6.00 Build 0)  -->
<svg version="1.1" id="Layer_1" xmlns="http://www.w3.org/2000/svg" xmlns:xlink="http://www.w3.org/1999/xlink" x="0px" y="0px"
	 viewBox="0 0 1280 1024" style="enable-background:new 0 0 1280 1024;" xml:space="preserve">
<style type="text/css">
	.st0{font-family:'ArialRoundedMTBold';}
	.st1{font-size:77.0646px;}
	.st2{stroke:#000000;stroke-width:10;stroke-miterlimit:10;}
	.st3{fill:none;stroke:#000000;stroke-width:10;stroke-miterlimit:10;}
	.st4{font-size:24px;}
	.st5{stroke:#000000;stroke-width:7;stroke-miterlimit:10;}
	.st6{fill:none;stroke:#FF0000;stroke-width:6;stroke-miterlimit:10;}
	.st7{fill:none;stroke:#3300FF;stroke-width:6;stroke-miterlimit:10;}
    
     #op{
      animation-name: opac;
    animation-duration: 1.5s;
    animation-fill-mode: forwards;
    }
      @keyframes opac{
        0%{stroke-opacity: 0;
            fill-opacity:"0"}
        60%{stroke-opacity: 0.5;
    fill-opacity:"0.5"
    }
    100%{stroke-opacity: 1;
    fill-opacity:"1"}
        }
</style>
<text transform="matrix(0.8969 0 0 1 253.666 126.7441)" class="st0 st1">Semiconductor Diode</text>
<polygon class="st2" points="504,370 504,455 626,412.5 "/>
<line class="st3" x1="301" y1="410" x2="848" y2="413"/>
<line class="st3" x1="637" y1="345" x2="637" y2="482"/>
<circle class="st2" cx="299" cy="409" r="10"/>
<circle class="st2" cx="843" cy="414" r="10"/>
<text transform="matrix(1 0 0 1 379.6665 353.6665)" class="st0 st4">Anode(A)</text>
<text transform="matrix(1 0 0 1 661.333 354)" class="st0 st4">Cathode(K)</text>
<line id="op" class="st3" x1="289" y1="409" x2="71" y2="409"/>
<line  id="op"  class="st3" x1="1072" y1="414" x2="854" y2="414"/>
<line id="op"  class="st3" x1="73" y1="406" x2="73" y2="769"/>
<line  id="op" class="st3" x1="1072" y1="409" x2="1072" y2="772"/>
<line  id="op" class="st3" x1="72" y1="764" x2="435" y2="764"/>
<line id="op"  class="st3" x1="709" y1="769" x2="1072" y2="769"/>
<line id="op"  class="st3" x1="441.3" y1="764.3" x2="566.3" y2="764.3"/>
<line id="op"  class="st3" x1="583.3" y1="765.8" x2="708.3" y2="765.8"/>
<line id="op"  class="st3" x1="565.8" y1="826.8" x2="565.8" y2="701.8"/>
<line id="op"  class="st3" x1="583.8" y1="790.3" x2="583.8" y2="736.8"/>
<circle id="op"  class="st5" cx="441.8" cy="764.8" r="9"/>
<circle id="op"  class="st5" cx="707.8" cy="765.8" r="9"/>
<line id="op"  class="st6" x1="637.8" y1="847.3" x2="591.8" y2="847.3"/>
<line id="op"  class="st7" x1="522.3" y1="873.3" x2="522.3" y2="825.8"/>
<line id="op"  class="st7" x1="547.5" y1="849.5" x2="497.1" y2="849.5"/>
</svg>
