<?xml version="1.0" encoding="utf-8"?>
<!-- Generator: Adobe Illustrator 22.1.0, SVG Export Plug-In . SVG Version: 6.00 Build 0)  -->
<svg version="1.1" id="Layer_1" xmlns="http://www.w3.org/2000/svg" xmlns:xlink="http://www.w3.org/1999/xlink" x="0px" y="0px"
	 viewBox="0 0 1280 1024" style="enable-background:new 0 0 1280 1024;" xml:space="preserve">
<style type="text/css">
	.st0{font-family:'ArialRoundedMTBold';}
	.st1{font-size:101.8407px;}
	.st2{fill:#FFFFFF;stroke:#660000;stroke-width:3;stroke-miterlimit:10;}
	.st3{fill:#660000;}
	.st4{fill:none;stroke:#660000;stroke-width:3;stroke-miterlimit:10;}
	.st5{fill:#660000;stroke:#660000;stroke-width:3;stroke-miterlimit:10;}
	.st6{fill:none;stroke:#3300FF;stroke-width:3;stroke-miterlimit:10;}
	.st7{fill:none;stroke:#FF0000;stroke-width:3;stroke-miterlimit:10;}
	.st8{fill:none;stroke:#000000;stroke-width:4;stroke-miterlimit:10;}
	.st9{font-size:31.7118px;}
	.st10{font-size:59.5156px;}
	.st11{fill:none;stroke:#1C0055;stroke-width:3;stroke-miterlimit:10;}
	.st12{fill:none;stroke:#1C0055;stroke-width:3;stroke-miterlimit:10;stroke-dasharray:12.0038,12.0038;}
	.st13{fill:none;stroke:#1C0055;stroke-width:3;stroke-miterlimit:10;stroke-dasharray:11.7903,11.7903;}
	.st14{fill:#FFFFFF;stroke:#1C0055;stroke-width:3;stroke-miterlimit:10;}
    
     #op{
      animation-name: opac;
    animation-duration: 1.5s;
    animation-fill-mode: forwards;
    }
      @keyframes opac{
        0%{stroke-opacity: 0;
            fill-opacity:"0"}
        60%{stroke-opacity: 0.5;
    fill-opacity:"0.5"
    }
    100%{stroke-opacity: 1;
    fill-opacity:"1"}
        }
</style>
<text transform="matrix(0.7338 0 0 1 18 96.5186)" class="st0 st1">Alternating Voltage and Current</text>
<ellipse id="move" class="st2" cx="203.6" cy="369.6" rx="59.4" ry="68.6"/>
<g>
	<g>
		<path class="st3" d="M167.3,397.2c1-12.2,2.7-24.7,6.3-36.2c0.8-2.9,2-5.9,3.3-8.6c2.5-6.3,5.9-7.5,10.4-3.4
			c7.1,3.2,7.4,5.9,9.8,14c3.9,13.4,6.9,31.3,19.4,37.8c29.2,15.9,29.4-44.8,29.2-61.6c0-4.3-5.9-4.3-5.9,0
			c0,12.2-0.4,75.9-24.5,52.6c-12.1-11.8-9.2-33.8-19.2-47.1c-6.7-8.8-16.3-7.2-22.5,1.6c-9.4,13.1-10.8,34.7-12.1,51
			C161.1,401.5,166.9,401.5,167.3,397.2L167.3,397.2z"/>
	</g>
</g>
<line class="st4" x1="203.6" y1="165" x2="203.6" y2="301"/>
<line class="st4" x1="203.6" y1="438" x2="203.6" y2="573.9"/>
<ellipse class="st5" cx="203.6" cy="162.8" rx="8.4" ry="9.7"/>
<line class="st6" x1="97" y1="165" x2="144.4" y2="165"/>
<line class="st6" x1="120.7" y1="190.2" x2="120.7" y2="139.9"/>
<ellipse cx="203.6" cy="576.2" rx="8.4" ry="9.7"/>
<line class="st7" x1="97.8" y1="585.9" x2="143.8" y2="585.9"/>
<line class="st8" x1="549.8" y1="162.8" x2="549.8" y2="604.5"/>
<line class="st8" x1="549.8" y1="599.5" x2="1210" y2="599.5"/>
<text transform="matrix(0.8649 0 0 1 500.7822 212.6108)" class="st0 st9">10</text>
<text transform="matrix(0.8649 0 0 1 512.5391 300.9507)" class="st0 st9">5</text>
<text transform="matrix(0.8649 0 0 1 512.5391 403.4585)" class="st0 st9">0</text>
<text transform="matrix(0.8649 0 0 1 500.7822 505.9458)" class="st0 st9">-5</text>
<text transform="matrix(0.8649 0 0 1 494.9063 602.2129)" class="st0 st9">-10</text>
<text transform="matrix(0.8649 0 0 1 868.126 631.6602)" class="st0 st9">0.02</text>
<text transform="matrix(0.8649 0 0 1 494.9063 172.5181)" class="st0 st9">V</text>
<text transform="matrix(0.8649 0 0 1 1166.8984 654.3105)" class="st0 st9">t</text>
<text transform="matrix(0.9008 0 0 1 478 705.4209)" class="st0 st10">Alternating voltage waveform</text>
<g>
	<g>
		<line class="st11" x1="549.8" y1="494" x2="555.8" y2="494"/>
		<line class="st12" x1="567.8" y1="494.1" x2="1186" y2="496"/>
		<line class="st11" x1="1192" y1="496" x2="1198" y2="496"/>
	</g>
</g>
<g>
	<g>
		<line class="st11" x1="550.1" y1="393.4" x2="556.1" y2="393.4"/>
		<line class="st12" x1="568.1" y1="393.5" x2="1186.3" y2="395.4"/>
		<line class="st11" x1="1192.3" y1="395.4" x2="1198.3" y2="395.4"/>
	</g>
</g>
<g>
	<g>
		<line class="st11" x1="550.1" y1="290.6" x2="556.1" y2="290.6"/>
		<line class="st12" x1="568.1" y1="290.6" x2="1186.3" y2="292.6"/>
		<line class="st11" x1="1192.3" y1="292.6" x2="1198.3" y2="292.6"/>
	</g>
</g>
<g>
	<g>
		<line class="st11" x1="892.2" y1="599.5" x2="892.2" y2="593.5"/>
		<line class="st13" x1="892.3" y1="581.7" x2="893.3" y2="233.9"/>
		<line class="st11" x1="893.4" y1="228" x2="893.4" y2="222"/>
	</g>
</g>
<path class="st14" d="M529,396"/>
<path id="op" class="st11" d="M553,391.7C600.7,277.9,654.4,176,694.5,182c76.7,11.5,49.7,411.2,103.9,416c55.2,4.9,126-406.7,185.7-402
	c57.6,4.5,43.5,392.7,112.7,400c33.9,3.6,74.4-85.5,108.3-180"/>
</svg>
