<?xml version="1.0" encoding="utf-8"?>
<!-- Generator: Adobe Illustrator 22.1.0, SVG Export Plug-In . SVG Version: 6.00 Build 0)  -->
<svg version="1.1" id="Layer_1" xmlns="http://www.w3.org/2000/svg" xmlns:xlink="http://www.w3.org/1999/xlink" x="0px" y="0px"
	 viewBox="0 0 1280 1024" style="enable-background:new 0 0 1280 1024;" xml:space="preserve">
<style type="text/css">
	.st0{font-family:'ArialRoundedMTBold';}
	.st1{font-size:52.0968px;}
	.st2{fill:#FFFFFF;stroke:#660000;stroke-width:3;stroke-miterlimit:10;}
	.st3{fill:#660000;}
	.st4{fill:none;stroke:#660000;stroke-width:3;stroke-miterlimit:10;}
	.st5{fill:#660000;stroke:#660000;stroke-width:3;stroke-miterlimit:10;}
	.st6{fill:none;stroke:#FF0000;stroke-width:3;stroke-miterlimit:10;}
	.st7{font-size:68.4905px;}
	.st8{fill:none;stroke:#3300FF;stroke-width:3;stroke-miterlimit:10;}
</style>
<text transform="matrix(1.0602 0 0 1 523 623.0107)" class="st0 st1">AC Source</text>
<ellipse id="move" class="st2" cx="392.6" cy="325.6" rx="59.4" ry="68.6"/>
<g>
	<g>
		<path class="st3" d="M356.3,353.2c1-12.2,2.7-24.7,6.3-36.2c0.8-2.9,2-5.9,3.3-8.6c2.5-6.3,5.9-7.5,10.4-3.4
			c7.1,3.2,7.4,5.9,9.8,14c3.9,13.4,6.9,31.3,19.4,37.8c29.2,15.9,29.4-44.8,29.2-61.6c0-4.3-5.9-4.3-5.9,0
			c0,12.2-0.4,75.9-24.5,52.6c-12.1-11.8-9.2-33.8-19.2-47.1c-6.7-8.8-16.3-7.2-22.5,1.6c-9.4,13.1-10.8,34.7-12.1,51
			C350.1,357.5,355.9,357.5,356.3,353.2L356.3,353.2z"/>
	</g>
</g>
<line class="st4" x1="392.6" y1="121" x2="392.6" y2="257"/>
<line class="st4" x1="392.6" y1="394" x2="392.6" y2="529.9"/>
<ellipse class="st5" cx="392.6" cy="118.8" rx="8.4" ry="9.7"/>
<ellipse cx="392.6" cy="532.2" rx="8.4" ry="9.7"/>
<line id="blink_me" class="st6" x1="286.8" y1="121" x2="332.8" y2="121"/>
<text transform="matrix(0.8462 0 0 1 200 60)" class="st0 st7">Alternating Voltage and Current</text>
<line id="blink_me_1_" class="st8" x1="271" y1="502" x2="318.4" y2="502"/>
<line id="blink_me_2_" class="st8" x1="294.7" y1="527.2" x2="294.7" y2="476.9"/>
</svg>
