<?xml version="1.0" encoding="utf-8"?>
<!-- Generator: Adobe Illustrator 22.1.0, SVG Export Plug-In . SVG Version: 6.00 Build 0)  -->
<svg version="1.1" id="Layer_1" xmlns="http://www.w3.org/2000/svg" xmlns:xlink="http://www.w3.org/1999/xlink" x="0px" y="0px"
	 viewBox="0 0 1280 1024" style="enable-background:new 0 0 1280 1024;" xml:space="preserve">
<style type="text/css">
	.st0{fill:#EB2D34;}
	.st1{fill:#231F20;}
	.st2{font-family:'ArialRoundedMTBold';}
	.st3{font-size:77.0646px;}
	.st4{stroke:#000000;stroke-width:10;stroke-miterlimit:10;}
	.st5{fill:none;stroke:#000000;stroke-width:10;stroke-miterlimit:10;}
	.st6{font-size:24px;}
	.st7{stroke:#000000;stroke-width:7;stroke-miterlimit:10;}
	.st8{fill:none;stroke:#FF0000;stroke-width:6;stroke-miterlimit:10;}
	.st9{fill:none;stroke:#3300FF;stroke-width:6;stroke-miterlimit:10;}
    
   
</style>
<symbol  id="Arrow_3" viewBox="-11.6 -10.8 23.2 21.6">
	<g>
		<g>
			
		</g>
		<g>
			
		</g>
	</g>
</symbol>
<text transform="matrix(0.8969 0 0 1 253.666 126.7441)" class="st2 st3">Semiconductor Diode</text>
<polygon class="st4" points="504,370 504,455 626,412.5 "/>
<line class="st5" x1="301" y1="410" x2="848" y2="413"/>
<line class="st5" x1="637" y1="345" x2="637" y2="482"/>
<circle class="st4" cx="299" cy="409" r="10"/>
<circle class="st4" cx="843" cy="414" r="10"/>
<text transform="matrix(1 0 0 1 379.6665 353.6665)" class="st2 st6">Anode(A)</text>
<text transform="matrix(1 0 0 1 661.333 354)" class="st2 st6">Cathode(K)</text>
<line class="st5" x1="289" y1="409" x2="71" y2="409"/>
<line class="st5" x1="1072" y1="414" x2="854" y2="414"/>
<line class="st5" x1="73" y1="406" x2="73" y2="769"/>
<line class="st5" x1="1072" y1="409" x2="1072" y2="772"/>
<line class="st5" x1="72" y1="764" x2="435" y2="764"/>
<line class="st5" x1="709" y1="769" x2="1072" y2="769"/>
<line class="st5" x1="441.3" y1="764.3" x2="566.3" y2="764.3"/>
<line class="st5" x1="583.3" y1="765.8" x2="708.3" y2="765.8"/>
<line class="st5" x1="565.8" y1="826.8" x2="565.8" y2="701.8"/>
<line class="st5" x1="583.8" y1="790.3" x2="583.8" y2="736.8"/>
<circle class="st7" cx="441.8" cy="764.8" r="9"/>
<circle class="st7" cx="707.8" cy="765.8" r="9"/>
<line class="st8" x1="637.8" y1="847.3" x2="591.8" y2="847.3"/>
<line class="st9" x1="522.3" y1="873.3" x2="522.3" y2="825.8"/>
<line class="st9" x1="547.5" y1="849.5" x2="497.1" y2="849.5"/>
<use xlink:href="#Arrow_3"  width="23.2" height="21.6" x="-11.6" y="-10.8" transform="matrix(2.701 -1.140033e-03 -1.339059e-03 -2.9146 964.6682 413.5095)" style="overflow:visible;"/>
</svg>
