<?xml version="1.0" encoding="utf-8"?>
<!-- Generator: Adobe Illustrator 22.1.0, SVG Export Plug-In . SVG Version: 6.00 Build 0)  -->
<svg version="1.1" id="Layer_1" xmlns="http://www.w3.org/2000/svg" xmlns:xlink="http://www.w3.org/1999/xlink" x="0px" y="0px"
	 viewBox="0 0 1280 1024" style="enable-background:new 0 0 1280 1024;" xml:space="preserve">
<style type="text/css">
	.st0{font-family:'ArialRoundedMTBold';}
	.st1{font-size:101.8407px;}
	.st2{fill:#FFFFFF;stroke:#660000;stroke-width:3;stroke-miterlimit:10;}
	.st3{fill:#660000;}
	.st4{fill:none;stroke:#660000;stroke-width:3;stroke-miterlimit:10;}
	.st5{fill:#660000;stroke:#660000;stroke-width:3;stroke-miterlimit:10;}
	.st6{fill:none;stroke:#3300FF;stroke-width:3;stroke-miterlimit:10;}
	.st7{fill:none;stroke:#FF0000;stroke-width:3;stroke-miterlimit:10;}
	.st8{fill:none;stroke:#000000;stroke-width:4;stroke-miterlimit:10;}
	.st9{font-size:31.7118px;}
	.st10{font-size:59.5156px;}
</style>
<text transform="matrix(0.7338 0 0 1 18 96.5186)" class="st0 st1">Alternating Voltage and Current</text>
<ellipse id="move" class="st2" cx="203.6" cy="369.6" rx="59.4" ry="68.6"/>
<g>
	<g>
		<path class="st3" d="M167.3,397.2c1-12.2,2.7-24.7,6.3-36.2c0.8-2.9,2-5.9,3.3-8.6c2.5-6.3,5.9-7.5,10.4-3.4
			c7.1,3.2,7.4,5.9,9.8,14c3.9,13.4,6.9,31.3,19.4,37.8c29.2,15.9,29.4-44.8,29.2-61.6c0-4.3-5.9-4.3-5.9,0
			c0,12.2-0.4,75.9-24.5,52.6c-12.1-11.8-9.2-33.8-19.2-47.1c-6.7-8.8-16.3-7.2-22.5,1.6c-9.4,13.1-10.8,34.7-12.1,51
			C161.1,401.5,166.9,401.5,167.3,397.2L167.3,397.2z"/>
	</g>
</g>
<line class="st4" x1="203.6" y1="165" x2="203.6" y2="301"/>
<line class="st4" x1="203.6" y1="438" x2="203.6" y2="573.9"/>
<ellipse class="st5" cx="203.6" cy="162.8" rx="8.4" ry="9.7"/>
<line class="st6" x1="97" y1="165" x2="144.4" y2="165"/>
<line class="st6" x1="120.7" y1="190.2" x2="120.7" y2="139.9"/>
<ellipse cx="203.6" cy="576.2" rx="8.4" ry="9.7"/>
<line class="st7" x1="97.8" y1="585.9" x2="143.8" y2="585.9"/>
<line class="st8" x1="549.8" y1="162.8" x2="549.8" y2="604.5"/>
<line class="st8" x1="549.8" y1="599.5" x2="1210" y2="599.5"/>
<text transform="matrix(0.8649 0 0 1 500.7822 212.6108)" class="st0 st9">10</text>
<text transform="matrix(0.8649 0 0 1 512.5391 300.9507)" class="st0 st9">5</text>
<text transform="matrix(0.8649 0 0 1 512.5391 403.4585)" class="st0 st9">0</text>
<text transform="matrix(0.8649 0 0 1 500.7822 505.9458)" class="st0 st9">-5</text>
<text transform="matrix(0.8649 0 0 1 494.9063 602.2129)" class="st0 st9">-10</text>
<text transform="matrix(0.8649 0 0 1 868.126 631.6602)" class="st0 st9">0.02</text>
<text transform="matrix(0.8649 0 0 1 494.9063 172.5181)" class="st0 st9">V</text>
<text transform="matrix(0.8649 0 0 1 1166.8984 654.3105)" class="st0 st9">t</text>
<text transform="matrix(0.9008 0 0 1 478 705.4209)" class="st0 st10">Alternating voltage waveform</text>
</svg>
