<?xml version="1.0" encoding="utf-8"?>
<!-- Generator: Adobe Illustrator 22.1.0, SVG Export Plug-In . SVG Version: 6.00 Build 0)  -->
<svg version="1.1" id="Layer_1" xmlns="http://www.w3.org/2000/svg" xmlns:xlink="http://www.w3.org/1999/xlink" x="0px" y="0px"
	 viewBox="0 0 1366 768" style="enable-background:new 0 0 1366 768;" xml:space="preserve">
<style type="text/css">
	.st0{fill:#0000FF;}
	.st1{font-family:'ArialRoundedMTBold';}
	.st2{font-size:48px;}
	.st3{font-size:36px;}
	.st4{fill:none;stroke:#000000;stroke-width:4;stroke-miterlimit:10;}
	.st5{fill:none;stroke:#231F20;stroke-width:3;stroke-linecap:round;stroke-miterlimit:10;}
	.st6{fill:none;stroke:#231F20;stroke-width:4;stroke-miterlimit:10;}
	.st7{fill:#009245;}
	.st8{fill:#39B54A;}
	.st9{fill:none;stroke:#FFFF00;stroke-width:4;stroke-miterlimit:10;}
	.st10{fill:none;stroke:#009933;stroke-width:4;stroke-miterlimit:10;}
	.st11{fill:none;stroke:#0000FF;stroke-width:4;stroke-miterlimit:10;}
	.st12{fill:none;stroke:#000000;stroke-width:3;stroke-miterlimit:10;}
	.st13{font-size:40px;}
	.st14{fill:none;stroke:#000000;stroke-miterlimit:10;}
	.st15{fill:#FFC800;}
	.st16{font-size:70px;}
	.st17{fill:#FFC800;stroke:#FFC800;stroke-width:2;stroke-miterlimit:10;}
	.st18{fill:none;}
	.st19{fill:none;stroke:#FFC800;stroke-width:4;stroke-miterlimit:10;}
	.st20{fill:#FFC800;stroke:#FFC800;stroke-width:4;stroke-miterlimit:10;}
	.st21{stroke:#000000;stroke-width:0.5;stroke-miterlimit:10;}
	.st22{stroke:#231F20;stroke-linecap:round;stroke-miterlimit:10;}
</style>
<text transform="matrix(1 0 0 1 410.75 185)" class="st0 st1 st2">P</text>
<text transform="matrix(1 0 0 1 442.75 185)" class="st1 st3"> </text>
<text transform="matrix(1 0 0 1 451.75 185)" class="st1 st3">T</text>
<text transform="matrix(1 0 0 1 472.85 185)" class="st1 st3">ype</text>
<rect x="236.5" y="213.5" class="st4" width="441" height="210"/>
<circle class="st5" cx="278.3" cy="251" r="18.8"/>
<text transform="matrix(1 0 0 1 268.25 263.75)" class="st0 st1 st3">+</text>
<circle class="st5" cx="349.3" cy="251" r="18.8"/>
<text transform="matrix(1 0 0 1 339.25 263.75)" class="st0 st1 st3">+</text>
<circle class="st5" cx="421.3" cy="251" r="18.8"/>
<text transform="matrix(1 0 0 1 411.25 263.75)" class="st0 st1 st3">+</text>
<circle class="st5" cx="493.3" cy="251" r="18.8"/>
<text transform="matrix(1 0 0 1 483.25 263.75)" class="st0 st1 st3">+</text>
<circle class="st5" cx="278.3" cy="318" r="18.8"/>
<text transform="matrix(1 0 0 1 268.25 330.75)" class="st0 st1 st3">+</text>
<circle class="st5" cx="349.3" cy="318" r="18.8"/>
<text transform="matrix(1 0 0 1 339.25 330.75)" class="st0 st1 st3">+</text>
<circle class="st5" cx="421.3" cy="318" r="18.8"/>
<text transform="matrix(1 0 0 1 411.25 330.75)" class="st0 st1 st3">+</text>
<circle class="st5" cx="493.3" cy="318" r="18.8"/>
<text transform="matrix(1 0 0 1 483.25 330.75)" class="st0 st1 st3">+</text>
<circle class="st5" cx="277.3" cy="387" r="18.8"/>
<text transform="matrix(1 0 0 1 267.25 399.75)" class="st0 st1 st3">+</text>
<circle class="st5" cx="348.3" cy="387" r="18.8"/>
<text transform="matrix(1 0 0 1 338.25 399.75)" class="st0 st1 st3">+</text>
<circle class="st5" cx="420.3" cy="387" r="18.8"/>
<text transform="matrix(1 0 0 1 410.25 399.75)" class="st0 st1 st3">+</text>
<circle class="st5" cx="718.3" cy="253.5" r="18.8"/>
<text transform="matrix(1 0 0 1 708.2332 266.25)" class="st0 st1 st3">+</text>
<circle class="st5" cx="718.3" cy="320.5" r="18.8"/>
<text transform="matrix(1 0 0 1 708.2332 333.25)" class="st0 st1 st3">+</text>
<circle class="st5" cx="717.3" cy="389.5" r="18.8"/>
<text transform="matrix(1 0 0 1 707.2332 402.25)" class="st0 st1 st3">+</text>
<circle class="st5" cx="558.8" cy="248" r="18.8"/>
<text transform="matrix(1 0 0 1 548.7832 260.75)" class="st0 st1 st3">+</text>
<circle class="st5" cx="558.8" cy="315" r="18.8"/>
<text transform="matrix(1 0 0 1 548.7832 327.75)" class="st0 st1 st3">+</text>
<circle class="st5" cx="557.8" cy="384" r="18.8"/>
<text transform="matrix(1 0 0 1 547.7832 396.75)" class="st0 st1 st3">+</text>
<circle class="st5" cx="492.3" cy="387" r="18.8"/>
<text transform="matrix(1 0 0 1 482.25 399.75)" class="st0 st1 st3">+</text>
<rect x="677.5" y="213.5" class="st6" width="441" height="210"/>
<text transform="matrix(1 0 0 1 845.75 185)" class="st7 st1 st2">N</text>
<text transform="matrix(1 0 0 1 882.25 185)" class="st1 st3"> </text>
<text transform="matrix(1 0 0 1 891.25 185)" class="st1 st3">T</text>
<text transform="matrix(1 0 0 1 912.35 185)" class="st1 st3">ype</text>
<circle class="st5" cx="864.3" cy="251" r="18.8"/>
<text transform="matrix(1 0 0 1 856 264)" class="st8 st1 st2">-</text>
<circle class="st5" cx="937.3" cy="251" r="18.8"/>
<text transform="matrix(1 0 0 1 929 264)" class="st8 st1 st2">-</text>
<circle class="st5" cx="1009.3" cy="251" r="18.8"/>
<text transform="matrix(1 0 0 1 1001 264)" class="st8 st1 st2">-</text>
<circle class="st5" cx="1083.3" cy="250" r="18.8"/>
<text transform="matrix(1 0 0 1 1075 263)" class="st8 st1 st2">-</text>
<circle class="st5" cx="863.3" cy="318" r="18.8"/>
<text transform="matrix(1 0 0 1 855 331)" class="st8 st1 st2">-</text>
<circle class="st5" cx="936.3" cy="318" r="18.8"/>
<text transform="matrix(1 0 0 1 928 331)" class="st8 st1 st2">-</text>
<circle class="st5" cx="1008.3" cy="318" r="18.8"/>
<text transform="matrix(1 0 0 1 1000 331)" class="st8 st1 st2">-</text>
<circle class="st5" cx="1082.3" cy="317" r="18.8"/>
<text transform="matrix(1 0 0 1 1074 330)" class="st8 st1 st2">-</text>
<circle class="st5" cx="863.3" cy="384" r="18.8"/>
<text transform="matrix(1 0 0 1 855 397)" class="st8 st1 st2">-</text>
<circle class="st5" cx="936.3" cy="384" r="18.8"/>
<text transform="matrix(1 0 0 1 928 397)" class="st8 st1 st2">-</text>
<circle class="st5" cx="795.3" cy="252" r="18.8"/>
<text transform="matrix(1 0 0 1 787 265)" class="st8 st1 st2">-</text>
<circle class="st5" cx="638.3" cy="252.5" r="18.8"/>
<text transform="matrix(1 0 0 1 630 265.5)" class="st8 st1 st2">-</text>
<circle class="st5" cx="794.3" cy="319" r="18.8"/>
<text transform="matrix(1 0 0 1 786 332)" class="st8 st1 st2">-</text>
<circle class="st5" cx="637.3" cy="319.5" r="18.8"/>
<text transform="matrix(1 0 0 1 629 332.5)" class="st8 st1 st2">-</text>
<circle class="st5" cx="794.3" cy="385" r="18.8"/>
<text transform="matrix(1 0 0 1 786 398)" class="st8 st1 st2">-</text>
<circle class="st5" cx="637.3" cy="385.5" r="18.8"/>
<text transform="matrix(1 0 0 1 629 398.5)" class="st8 st1 st2">-</text>
<circle class="st5" cx="1008.3" cy="384" r="18.8"/>
<text transform="matrix(1 0 0 1 1000 397)" class="st8 st1 st2">-</text>
<circle class="st5" cx="1082.3" cy="383" r="18.8"/>
<text transform="matrix(1 0 0 1 1074 396)" class="st8 st1 st2">-</text>
<line class="st9" x1="677" y1="211" x2="675.6" y2="421"/>
<line class="st10" x1="606" y1="213.5" x2="604.6" y2="423.5"/>
<line class="st11" x1="752.5" y1="211" x2="751.1" y2="421"/>
<line class="st12" x1="234" y1="316" x2="181.6" y2="316"/>
<line class="st12" x1="1171.5" y1="319.5" x2="1119.1" y2="319.5"/>
<path class="st12" d="M181.6,316.6c0.4,79.4,0.4,158.4,0,237"/>
<path class="st12" d="M726.9,553.9c148.1,0.1,297.1,0.1,445.6-0.4"/>
<path class="st12" d="M181.6,553.6C336,554,490,554,643.8,553.9"/>
<path class="st12" d="M1171.5,319.7c0.5,78.3,0.5,156.3,0,233.9"/>
<line class="st12" x1="643.8" y1="498.1" x2="643.8" y2="604.6"/>
<line class="st12" x1="683" y1="523.6" x2="683" y2="585"/>
<line class="st12" x1="726.9" y1="553.9" x2="683" y2="553.6"/>
<text transform="matrix(1 0 0 1 557.0002 467.6756)" class="st1 st13">Reverse BIAS</text>
<text transform="matrix(1 0 0 1 557.0002 467.6756)" class="st14 st1 st13">Reverse BIAS</text>
<text transform="matrix(1 0 0 1 604.6 544.5828)" class="st15 st1 st16">-</text>
<text transform="matrix(1 0 0 1 198.6205 312.5999)" class="st17 st1 st16">-</text>
<rect x="887.6" y="747.1" class="st18" width="4.5" height="1.5"/>
<text transform="matrix(1 0 0 1 701.9498 546.3497)" class="st15 st1 st16">+</text>
<text transform="matrix(1 0 0 1 701.9498 546.3497)" class="st19 st1 st16">+</text>
<text transform="matrix(1 0 0 1 1133.6609 311.4666)" class="st20 st1 st16">+</text>
<rect x="698.6" y="508.6" class="st18" width="30" height="6"/>
<rect x="610.1" y="518" class="st18" width="18" height="0.7"/>
<text transform="matrix(1 0 0 1 369.5 634.5781)"><tspan x="0" y="0" class="st21 st1 st3">Electrons get attracted to the positive </tspan><tspan x="0" y="43.2" class="st21 st1 st3">terminal of the battrey</tspan></text>
<polygon class="st22" points="256.3,344.4 245.2,357.5 256.6,366.7 "/>
<rect x="256.5" y="353.2" class="st22" width="49.1" height="4"/>
<polygon class="st22" points="254.2,273.4 243.1,286.5 254.4,295.6 "/>
<rect x="254.3" y="282.2" class="st22" width="49.1" height="4"/>
</svg>
