<?xml version="1.0" encoding="utf-8"?>
<svg version="1.1" id="Layer_1" xmlns="http://www.w3.org/2000/svg" xmlns:xlink="http://www.w3.org/1999/xlink" x="0px" y="0px"
	 viewBox="0 0 1366 768" style="enable-background:new 0 0 1366 768;" xml:space="preserve">
<style type="text/css">
	.st0{fill:#0000FF;}
	.st1{font-family:'ArialRoundedMTBold';}
	.st2{font-size:48px;}
	.st3{font-size:36px;}
	.st4{fill:none;stroke:#000000;stroke-width:4;stroke-miterlimit:10;}
	.st5{fill:none;stroke:#231F20;stroke-width:3;stroke-linecap:round;stroke-miterlimit:10;}
	.st6{fill:none;stroke:#231F20;stroke-width:4;stroke-miterlimit:10;}
	.st7{fill:#009245;}
</style>
<text transform="matrix(1 0 0 1 410.75 185)" class="st0 st1 st2">P</text>
<text transform="matrix(1 0 0 1 442.75 185)" class="st1 st3"> Type</text>
<rect x="236.5" y="213.5" class="st4" width="441" height="210"/>
<circle class="st5" cx="278.3" cy="251" r="18.8"/>
<text transform="matrix(1 0 0 1 268.25 263.75)" class="st0 st1 st3">+</text>
<circle class="st5" cx="638.3" cy="251" r="18.8"/>
<text transform="matrix(1 0 0 1 628.25 263.75)" class="st0 st1 st3">+</text>
<circle class="st5" cx="349.3" cy="251" r="18.8"/>
<text transform="matrix(1 0 0 1 339.25 263.75)" class="st0 st1 st3">+</text>
<circle class="st5" cx="564.3" cy="251" r="18.8"/>
<text transform="matrix(1 0 0 1 554.25 263.75)" class="st0 st1 st3">+</text>
<circle class="st5" cx="421.3" cy="251" r="18.8"/>
<text transform="matrix(1 0 0 1 411.25 263.75)" class="st0 st1 st3">+</text>
<circle class="st5" cx="493.3" cy="251" r="18.8"/>
<text transform="matrix(1 0 0 1 483.25 263.75)" class="st0 st1 st3">+</text>
<circle class="st5" cx="278.3" cy="318" r="18.8"/>
<text transform="matrix(1 0 0 1 268.25 330.75)" class="st0 st1 st3">+</text>
<circle class="st5" cx="638.3" cy="318" r="18.8"/>
<text transform="matrix(1 0 0 1 628.25 330.75)" class="st0 st1 st3">+</text>
<circle class="st5" cx="349.3" cy="318" r="18.8"/>
<text transform="matrix(1 0 0 1 339.25 330.75)" class="st0 st1 st3">+</text>
<circle class="st5" cx="564.3" cy="318" r="18.8"/>
<text transform="matrix(1 0 0 1 554.25 330.75)" class="st0 st1 st3">+</text>
<circle class="st5" cx="421.3" cy="318" r="18.8"/>
<text transform="matrix(1 0 0 1 411.25 330.75)" class="st0 st1 st3">+</text>
<circle class="st5" cx="493.3" cy="318" r="18.8"/>
<text transform="matrix(1 0 0 1 483.25 330.75)" class="st0 st1 st3">+</text>
<circle class="st5" cx="277.3" cy="387" r="18.8"/>
<text transform="matrix(1 0 0 1 267.25 399.75)" class="st0 st1 st3">+</text>
<circle class="st5" cx="637.3" cy="387" r="18.8"/>
<text transform="matrix(1 0 0 1 627.25 399.75)" class="st0 st1 st3">+</text>
<circle class="st5" cx="348.3" cy="387" r="18.8"/>
<text transform="matrix(1 0 0 1 338.25 399.75)" class="st0 st1 st3">+</text>
<circle class="st5" cx="563.3" cy="387" r="18.8"/>
<text transform="matrix(1 0 0 1 553.25 399.75)" class="st0 st1 st3">+</text>
<circle class="st5" cx="420.3" cy="387" r="18.8"/>
<text transform="matrix(1 0 0 1 410.25 399.75)" class="st0 st1 st3">+</text>
<circle class="st5" cx="492.3" cy="387" r="18.8"/>
<text transform="matrix(1 0 0 1 482.25 399.75)" class="st0 st1 st3">+</text>
<rect x="677.5" y="213.5" class="st6" width="441" height="210"/>
<text transform="matrix(1 0 0 1 845.75 185)" class="st7 st1 st2">N</text>
<text transform="matrix(1 0 0 1 882.25 185)" class="st1 st3"> Type</text>
</svg>
