<?xml version="1.0" encoding="utf-8"?>
<!-- Generator: Adobe Illustrator 22.1.0, SVG Export Plug-In . SVG Version: 6.00 Build 0)  -->
<svg version="1.1" id="Layer_1" xmlns="http://www.w3.org/2000/svg" xmlns:xlink="http://www.w3.org/1999/xlink" x="0px" y="0px"
	 viewBox="0 0 1366 768" style="enable-background:new 0 0 1366 768;" xml:space="preserve">
<style type="text/css">
	.st0{fill:#0000FF;}
	.st1{font-family:'ArialRoundedMTBold';}
	.st2{font-size:48px;}
	.st3{font-size:36px;}
	.st4{fill:none;stroke:#000000;stroke-width:4;stroke-miterlimit:10;}
	.st5{fill:none;stroke:#231F20;stroke-width:3;stroke-linecap:round;stroke-miterlimit:10;}
	.st6{fill:none;stroke:#231F20;stroke-width:4;stroke-miterlimit:10;}
	.st7{fill:#009245;}
	.st8{fill:none;}
	.st9{fill:#39B54A;}
	.st10{fill:none;stroke:#FFFF00;stroke-width:4;stroke-miterlimit:10;}
	.st11{font-size:45px;}
	.st12{fill:none;stroke:#009933;stroke-width:4;stroke-miterlimit:10;}
	.st13{fill:none;stroke:#0000FF;stroke-width:4;stroke-miterlimit:10;}
	.st14{font-size:40px;}
	.st15{fill:#009933;}
	.st16{stroke:#000000;stroke-miterlimit:10;}
	.st17{stroke:#231F20;stroke-linecap:round;stroke-miterlimit:10;}
</style>
<text transform="matrix(1 0 0 1 410.75 185)" class="st0 st1 st2">P</text>
<text transform="matrix(1 0 0 1 442.75 185)" class="st1 st3"> Type</text>
<rect x="236.5" y="213.5" class="st4" width="441" height="210"/>
<circle class="st5" cx="278.3" cy="251" r="18.8"/>
<text transform="matrix(1 0 0 1 268.25 263.75)" class="st0 st1 st3">+</text>
<circle class="st5" cx="349.3" cy="251" r="18.8"/>
<text transform="matrix(1 0 0 1 339.25 263.75)" class="st0 st1 st3">+</text>
<circle class="st5" cx="421.3" cy="251" r="18.8"/>
<text transform="matrix(1 0 0 1 411.25 263.75)" class="st0 st1 st3">+</text>
<circle class="st5" cx="493.3" cy="251" r="18.8"/>
<text transform="matrix(1 0 0 1 483.25 263.75)" class="st0 st1 st3">+</text>
<circle class="st5" cx="278.3" cy="318" r="18.8"/>
<text transform="matrix(1 0 0 1 268.25 330.75)" class="st0 st1 st3">+</text>
<circle class="st5" cx="349.3" cy="318" r="18.8"/>
<text transform="matrix(1 0 0 1 339.25 330.75)" class="st0 st1 st3">+</text>
<circle class="st5" cx="421.3" cy="318" r="18.8"/>
<text transform="matrix(1 0 0 1 411.25 330.75)" class="st0 st1 st3">+</text>
<circle class="st5" cx="493.3" cy="318" r="18.8"/>
<text transform="matrix(1 0 0 1 483.25 330.75)" class="st0 st1 st3">+</text>
<circle class="st5" cx="277.3" cy="387" r="18.8"/>
<text transform="matrix(1 0 0 1 267.25 399.75)" class="st0 st1 st3">+</text>
<circle class="st5" cx="348.3" cy="387" r="18.8"/>
<text transform="matrix(1 0 0 1 338.25 399.75)" class="st0 st1 st3">+</text>
<circle class="st5" cx="420.3" cy="387" r="18.8"/>
<text transform="matrix(1 0 0 1 410.25 399.75)" class="st0 st1 st3">+</text>
<circle class="st5" cx="718.3" cy="253.5" r="18.8"/>
<text transform="matrix(1 0 0 1 708.2332 266.25)" class="st0 st1 st3">+</text>
<circle class="st5" cx="790.3" cy="253.5" r="18.8"/>
<text transform="matrix(1 0 0 1 780.2332 266.25)" class="st0 st1 st3">+</text>
<circle class="st5" cx="718.3" cy="320.5" r="18.8"/>
<text transform="matrix(1 0 0 1 708.2332 333.25)" class="st0 st1 st3">+</text>
<circle class="st5" cx="790.3" cy="320.5" r="18.8"/>
<text transform="matrix(1 0 0 1 780.2332 333.25)" class="st0 st1 st3">+</text>
<circle class="st5" cx="717.3" cy="389.5" r="18.8"/>
<text transform="matrix(1 0 0 1 707.2332 402.25)" class="st0 st1 st3">+</text>
<circle class="st5" cx="789.3" cy="389.5" r="18.8"/>
<text transform="matrix(1 0 0 1 779.2332 402.25)" class="st0 st1 st3">+</text>
<circle class="st5" cx="492.3" cy="387" r="18.8"/>
<text transform="matrix(1 0 0 1 482.25 399.75)" class="st0 st1 st3">+</text>
<rect x="677.5" y="213.5" class="st6" width="441" height="210"/>
<text transform="matrix(1 0 0 1 845.75 185)" class="st7 st1 st2">N</text>
<text transform="matrix(1 0 0 1 882.25 185)" class="st1 st3"> Type</text>
<rect x="-166" y="541" class="st8" width="360" height="214"/>
<circle class="st5" cx="864.3" cy="251" r="18.8"/>
<text transform="matrix(1 0 0 1 856 264)" class="st9 st1 st2">-</text>
<circle class="st5" cx="937.3" cy="251" r="18.8"/>
<text transform="matrix(1 0 0 1 929 264)" class="st9 st1 st2">-</text>
<circle class="st5" cx="1009.3" cy="251" r="18.8"/>
<text transform="matrix(1 0 0 1 1001 264)" class="st9 st1 st2">-</text>
<circle class="st5" cx="1083.3" cy="250" r="18.8"/>
<text transform="matrix(1 0 0 1 1075 263)" class="st9 st1 st2">-</text>
<circle class="st5" cx="863.3" cy="318" r="18.8"/>
<text transform="matrix(1 0 0 1 855 331)" class="st9 st1 st2">-</text>
<circle class="st5" cx="936.3" cy="318" r="18.8"/>
<text transform="matrix(1 0 0 1 928 331)" class="st9 st1 st2">-</text>
<circle class="st5" cx="1008.3" cy="318" r="18.8"/>
<text transform="matrix(1 0 0 1 1000 331)" class="st9 st1 st2">-</text>
<circle class="st5" cx="1082.3" cy="317" r="18.8"/>
<text transform="matrix(1 0 0 1 1074 330)" class="st9 st1 st2">-</text>
<circle class="st5" cx="863.3" cy="384" r="18.8"/>
<text transform="matrix(1 0 0 1 855 397)" class="st9 st1 st2">-</text>
<circle class="st5" cx="936.3" cy="384" r="18.8"/>
<text transform="matrix(1 0 0 1 928 397)" class="st9 st1 st2">-</text>
<circle class="st5" cx="565.3" cy="252.5" r="18.8"/>
<text transform="matrix(1 0 0 1 557 265.5)" class="st9 st1 st2">-</text>
<circle class="st5" cx="638.3" cy="252.5" r="18.8"/>
<text transform="matrix(1 0 0 1 630 265.5)" class="st9 st1 st2">-</text>
<circle class="st5" cx="564.3" cy="319.5" r="18.8"/>
<text transform="matrix(1 0 0 1 556 332.5)" class="st9 st1 st2">-</text>
<circle class="st5" cx="637.3" cy="319.5" r="18.8"/>
<text transform="matrix(1 0 0 1 629 332.5)" class="st9 st1 st2">-</text>
<circle class="st5" cx="564.3" cy="385.5" r="18.8"/>
<text transform="matrix(1 0 0 1 556 398.5)" class="st9 st1 st2">-</text>
<circle class="st5" cx="637.3" cy="385.5" r="18.8"/>
<text transform="matrix(1 0 0 1 629 398.5)" class="st9 st1 st2">-</text>
<circle class="st5" cx="1008.3" cy="384" r="18.8"/>
<text transform="matrix(1 0 0 1 1000 397)" class="st9 st1 st2">-</text>
<circle class="st5" cx="1082.3" cy="383" r="18.8"/>
<text transform="matrix(1 0 0 1 1074 396)" class="st9 st1 st2">-</text>
<rect x="1022.1" y="520.6" class="st8" width="0" height="7.5"/>
<line class="st10" x1="677" y1="211" x2="675.6" y2="421"/>
<text transform="matrix(1 0 0 1 222.1138 526.585)" class="st1 st11">This phenomenon creates a space charged region</text>
<line class="st12" x1="527.5" y1="211" x2="526.1" y2="421"/>
<line class="st13" x1="829.5" y1="211" x2="828.1" y2="421"/>
<text transform="matrix(1 0 0 1 227.6133 604.082)" class="st1 st14">Electrons in </text>
<text transform="matrix(1 0 0 1 428.3133 604.082)" class="st0 st1 st14">P </text>
<text transform="matrix(1 0 0 1 458.0133 604.082)" class="st1 st14">region</text>
<text transform="matrix(1 0 0 1 813.4663 608.082)" class="st1 st14"> Holes in </text>
<text transform="matrix(1 0 0 1 959.2663 608.082)" class="st15 st1 st14">N</text>
<text transform="matrix(1 0 0 1 989.6663 608.082)" class="st1 st14"> region</text>
<text transform="matrix(1 0 0 1 570.0952 481.5869)" class="st1 st14">Electric Field</text>
<rect x="643.1" y="435.7" class="st16" width="118.5" height="10.5"/>
<polygon class="st17" points="648.3,425.7 594.9,443.5 649.8,455.5 "/>
</svg>
