<?xml version="1.0" encoding="utf-8"?>
<svg version="1.1" id="Layer_1" xmlns="http://www.w3.org/2000/svg" xmlns:xlink="http://www.w3.org/1999/xlink" x="0px" y="0px"
	 viewBox="0 0 1366 768" style="enable-background:new 0 0 1366 768;" xml:space="preserve">
<style type="text/css">
	.st0{fill:#0000FF;}
	.st1{font-family:'ArialRoundedMTBold';}
	.st2{font-size:48px;}
	.st3{font-size:36px;}
	.st4{fill:none;stroke:#000000;stroke-width:4;stroke-miterlimit:10;}
	.st5{fill:none;stroke:#231F20;stroke-width:3;stroke-linecap:round;stroke-miterlimit:10;}
	.st6{fill:none;stroke:#231F20;stroke-width:4;stroke-miterlimit:10;}
	.st7{fill:#009245;}
	.st8{fill:none;}
	.st9{fill:#39B54A;}
	.st10{font-size:30px;}
	.st11{fill:none;stroke:#FFFF00;stroke-width:4;stroke-miterlimit:10;}
	.st12{stroke:#000000;stroke-width:0.5;stroke-miterlimit:10;}
	.st13{fill:#009933;stroke:#000000;stroke-width:0.5;stroke-miterlimit:10;}
	.st14{fill:#3300FF;stroke:#000000;stroke-width:0.5;stroke-miterlimit:10;}
	.st15{fill:none;stroke:#3300FF;stroke-width:4;stroke-miterlimit:10;}
	.st16{fill:none;stroke:#009933;stroke-width:4;stroke-miterlimit:10;}
	.st17{fill:#3300FF;}
	.st18{fill:#009933;}

#op{
      animation-name: opac;
    animation-duration: 1.5s;
    animation-fill-mode: forwards;
    }
      @keyframes opac{
        0%{stroke-opacity: 0;
            fill-opacity:"0"}
        60%{stroke-opacity: 0.5;
    fill-opacity:"0.5"
    }
    100%{stroke-opacity: 1;
    fill-opacity:"1"}
        }


	 #opp{
      animation : opac 2s linear;
    }
    @keyframes opac{
    0%{
    opacity:0.0;
    }
    30%{
    opacity:0.0;
    }
    50%{
     opacity:0.5;
    }
    70%{
     opacity:0.7;
    }
    100%{
     opacity:1.0;
    }
    }

</style>
<text transform="matrix(1 0 0 1 410.75 185)" class="st0 st1 st2">P</text>
<text transform="matrix(1 0 0 1 442.75 185)" class="st1 st3"> Type</text>
<rect x="236.5" y="213.5" class="st4" width="441" height="210"/>
<circle class="st5" cx="278.3" cy="251" r="18.8"/>
<text transform="matrix(1 0 0 1 268.25 263.75)" class="st0 st1 st3">+</text>
<circle class="st5" cx="638.3" cy="251" r="18.8"/>
<text transform="matrix(1 0 0 1 628.25 263.75)" class="st0 st1 st3">+</text>
<circle class="st5" cx="349.3" cy="251" r="18.8"/>
<text transform="matrix(1 0 0 1 339.25 263.75)" class="st0 st1 st3">+</text>
<circle class="st5" cx="564.3" cy="251" r="18.8"/>
<text transform="matrix(1 0 0 1 554.25 263.75)" class="st0 st1 st3">+</text>
<circle class="st5" cx="421.3" cy="251" r="18.8"/>
<text transform="matrix(1 0 0 1 411.25 263.75)" class="st0 st1 st3">+</text>
<circle class="st5" cx="493.3" cy="251" r="18.8"/>
<text transform="matrix(1 0 0 1 483.25 263.75)" class="st0 st1 st3">+</text>
<circle class="st5" cx="278.3" cy="318" r="18.8"/>
<text transform="matrix(1 0 0 1 268.25 330.75)" class="st0 st1 st3">+</text>
<circle class="st5" cx="638.3" cy="318" r="18.8"/>
<text transform="matrix(1 0 0 1 628.25 330.75)" class="st0 st1 st3">+</text>
<circle class="st5" cx="349.3" cy="318" r="18.8"/>
<text transform="matrix(1 0 0 1 339.25 330.75)" class="st0 st1 st3">+</text>
<circle class="st5" cx="564.3" cy="318" r="18.8"/>
<text transform="matrix(1 0 0 1 554.25 330.75)" class="st0 st1 st3">+</text>
<circle class="st5" cx="421.3" cy="318" r="18.8"/>
<text transform="matrix(1 0 0 1 411.25 330.75)" class="st0 st1 st3">+</text>
<circle class="st5" cx="493.3" cy="318" r="18.8"/>
<text transform="matrix(1 0 0 1 483.25 330.75)" class="st0 st1 st3">+</text>
<circle class="st5" cx="277.3" cy="387" r="18.8"/>
<text transform="matrix(1 0 0 1 267.25 399.75)" class="st0 st1 st3">+</text>
<circle class="st5" cx="637.3" cy="387" r="18.8"/>
<text transform="matrix(1 0 0 1 627.25 399.75)" class="st0 st1 st3">+</text>
<circle class="st5" cx="348.3" cy="387" r="18.8"/>
<text transform="matrix(1 0 0 1 338.25 399.75)" class="st0 st1 st3">+</text>
<circle class="st5" cx="563.3" cy="387" r="18.8"/>
<text transform="matrix(1 0 0 1 553.25 399.75)" class="st0 st1 st3">+</text>
<circle class="st5" cx="420.3" cy="387" r="18.8"/>
<text transform="matrix(1 0 0 1 410.25 399.75)" class="st0 st1 st3">+</text>
<circle class="st5" cx="492.3" cy="387" r="18.8"/>
<text transform="matrix(1 0 0 1 482.25 399.75)" class="st0 st1 st3">+</text>
<rect x="677.5" y="213.5" class="st6" width="441" height="210"/>
<text transform="matrix(1 0 0 1 845.75 185)" class="st7 st1 st2">N</text>
<text transform="matrix(1 0 0 1 882.25 185)" class="st1 st3"> Type</text>
<circle class="st5" cx="718.3" cy="252" r="18.8"/>
<rect x="-166" y="541" class="st8" width="360" height="214"/>
<text transform="matrix(1 0 0 1 710 265)" class="st9 st1 st2">-</text>
<circle class="st5" cx="790.3" cy="252" r="18.8"/>
<text transform="matrix(1 0 0 1 782 265)" class="st9 st1 st2">-</text>
<circle class="st5" cx="864.3" cy="251" r="18.8"/>
<text transform="matrix(1 0 0 1 856 264)" class="st9 st1 st2">-</text>
<circle class="st5" cx="937.3" cy="251" r="18.8"/>
<text transform="matrix(1 0 0 1 929 264)" class="st9 st1 st2">-</text>
<circle class="st5" cx="1009.3" cy="251" r="18.8"/>
<text transform="matrix(1 0 0 1 1001 264)" class="st9 st1 st2">-</text>
<circle class="st5" cx="1083.3" cy="250" r="18.8"/>
<text transform="matrix(1 0 0 1 1075 263)" class="st9 st1 st2">-</text>
<circle class="st8" cx="717.3" cy="319" r="18.8"/>
<text transform="matrix(1 0 0 1 709 332)" class="st9 st1 st2">-</text>
<circle class="st5" cx="789.3" cy="319" r="18.8"/>
<text transform="matrix(1 0 0 1 781 332)" class="st9 st1 st2">-</text>
<circle class="st5" cx="863.3" cy="318" r="18.8"/>
<text transform="matrix(1 0 0 1 855 331)" class="st9 st1 st2">-</text>
<circle class="st5" cx="936.3" cy="318" r="18.8"/>
<text transform="matrix(1 0 0 1 928 331)" class="st9 st1 st2">-</text>
<circle class="st5" cx="1008.3" cy="318" r="18.8"/>
<text transform="matrix(1 0 0 1 1000 331)" class="st9 st1 st2">-</text>
<circle class="st5" cx="1082.3" cy="317" r="18.8"/>
<text transform="matrix(1 0 0 1 1074 330)" class="st9 st1 st2">-</text>
<circle class="st5" cx="717.3" cy="385" r="18.8"/>
<text transform="matrix(1 0 0 1 709 398)" class="st9 st1 st2">-</text>
<circle class="st5" cx="789.3" cy="385" r="18.8"/>
<text transform="matrix(1 0 0 1 781 398)" class="st9 st1 st2">-</text>
<circle class="st5" cx="863.3" cy="384" r="18.8"/>
<text transform="matrix(1 0 0 1 855 397)" class="st9 st1 st2">-</text>
<circle class="st5" cx="936.3" cy="384" r="18.8"/>
<text transform="matrix(1 0 0 1 928 397)" class="st9 st1 st2">-</text>
<circle class="st5" cx="1008.3" cy="384" r="18.8"/>
<text transform="matrix(1 0 0 1 1000 397)" class="st9 st1 st2">-</text>
<circle class="st5" cx="1082.3" cy="383" r="18.8"/>
<text transform="matrix(1 0 0 1 1074 396)" class="st9 st1 st2">-</text>
<text transform="matrix(1 0 0 1 274 467)" class="st1 st10">Free Holes - Positively Charged</text>
<rect x="1022.1" y="520.6" class="st8" width="0" height="7.5"/>
<text transform="matrix(1 0 0 1 681 467)" class="st1 st10">Free Electrons - Negatively Charged</text>
<circle class="st5" cx="718.3" cy="319" r="18.8"/>
<line class="st11" x1="677" y1="211" x2="675.6" y2="421"/>
<text transform="matrix(1 0 0 1 186 534.5823)"><tspan x="50" y="0" class="st12 st1 st2">Electrons near the junction jump from </tspan><tspan x="798.1" y="0" class="st13 st1 st2">N </tspan><tspan x="846.6" y="0" class="st12 st1 st2">to </tspan><tspan x="894.5" y="0" class="st14 st1 st2">P</tspan></text>
<path id="op" class="st15" d="M555.6,363.6c62.1-67.9,169.2-70.9,239.3-6.7"/>
<path class="st16" d="M555.4,296.3c62.1-67.9,169.2-70.9,239.3-6.7"/>
<line class="st16" x1="555.4" y1="296.3" x2="555.6" y2="280.6"/>
<line class="st16" x1="572.8" y1="290.6" x2="558.2" y2="296.2"/>
<line id="op" class="st15" x1="777" y1="359.8" x2="792" y2="355.1"/>
<line id="op" class="st15" x1="788.2" y1="339.3" x2="794.8" y2="353.6"/>
<text id="opp" transform="matrix(1 0 0 1 238.1113 597.0811)"><tspan x="55" y="0" class="st1 st2">Holes near the junction jump from </tspan><tspan x="732" y="0" class="st17 st1 st2">P</tspan><tspan x="754" y="0" class="st1 st2"> to </tspan><tspan x="814" y="0" class="st18 st1 st2">N</tspan></text>
</svg>
