<?xml version="1.0" encoding="utf-8"?>
<svg version="1.1" id="Layer_1" xmlns="http://www.w3.org/2000/svg" xmlns:xlink="http://www.w3.org/1999/xlink" x="0px" y="0px"
	 viewBox="0 0 1366 768" style="enable-background:new 0 0 1366 768;" xml:space="preserve">
<style type="text/css">
	.st0{fill:#0000FF;}
	.st1{font-family:'ArialRoundedMTBold';}
	.st2{font-size:48px;}
	.st3{font-size:36px;}
	.st4{fill:none;stroke:#000000;stroke-width:4;stroke-miterlimit:10;}
	.st5{fill:none;stroke:#231F20;stroke-width:3;stroke-linecap:round;stroke-miterlimit:10;}
	.st6{fill:none;stroke:#231F20;stroke-width:4;stroke-miterlimit:10;}
	.st7{fill:#009245;}
	.st8{fill:#39B54A;}
	.st9{fill:none;stroke:#FFFF00;stroke-width:4;stroke-miterlimit:10;}
	.st10{fill:none;stroke:#009933;stroke-width:4;stroke-miterlimit:10;}
	.st11{fill:none;stroke:#0000FF;stroke-width:4;stroke-miterlimit:10;}
	.st12{fill:none;stroke:#000000;stroke-width:3;stroke-miterlimit:10;}
	.st13{font-size:40px;}
	.st14{fill:none;stroke:#000000;stroke-miterlimit:10;}
	.st15{fill:#FFC800;}
	.st16{font-size:70px;}
	.st17{fill:none;stroke:#FFC800;stroke-width:2;stroke-miterlimit:10;}
	.st18{fill:none;}
	.st19{fill:none;stroke:#FFC800;stroke-width:4;stroke-miterlimit:10;}
	.st20{stroke:#000000;stroke-width:0.5;stroke-miterlimit:10;}
	.st21{fill:#0000FF;stroke:#0000FF;stroke-width:0.5;stroke-miterlimit:10;}
	.st22{fill:#009245;stroke:#009245;stroke-width:0.5;stroke-miterlimit:10;}
</style>
<text transform="matrix(1 0 0 1 410.75 185)" class="st0 st1 st2">P</text>
<text transform="matrix(1 0 0 1 442.75 185)" class="st1 st3"> </text>
<text transform="matrix(1 0 0 1 451.75 185)" class="st1 st3">T</text>
<text transform="matrix(1 0 0 1 472.85 185)" class="st1 st3">ype</text>
<rect x="236.5" y="213.5" class="st4" width="441" height="210"/>
<circle class="st5" cx="278.3" cy="251" r="18.8"/>
<text transform="matrix(1 0 0 1 268.25 263.75)" class="st0 st1 st3">+</text>
<circle class="st5" cx="349.3" cy="251" r="18.8"/>
<text transform="matrix(1 0 0 1 339.25 263.75)" class="st0 st1 st3">+</text>
<circle class="st5" cx="421.3" cy="251" r="18.8"/>
<text transform="matrix(1 0 0 1 411.25 263.75)" class="st0 st1 st3">+</text>
<circle class="st5" cx="278.3" cy="318" r="18.8"/>
<text transform="matrix(1 0 0 1 268.25 330.75)" class="st0 st1 st3">+</text>
<circle class="st5" cx="349.3" cy="318" r="18.8"/>
<text transform="matrix(1 0 0 1 339.25 330.75)" class="st0 st1 st3">+</text>
<circle class="st5" cx="421.3" cy="318" r="18.8"/>
<text transform="matrix(1 0 0 1 411.25 330.75)" class="st0 st1 st3">+</text>
<circle class="st5" cx="277.3" cy="387" r="18.8"/>
<text transform="matrix(1 0 0 1 267.25 399.75)" class="st0 st1 st3">+</text>
<circle class="st5" cx="348.3" cy="387" r="18.8"/>
<text transform="matrix(1 0 0 1 338.25 399.75)" class="st0 st1 st3">+</text>
<circle class="st5" cx="420.3" cy="387" r="18.8"/>
<circle class="st5" cx="798.2" cy="251" r="18.8"/>
<text transform="matrix(1 0 0 1 788.1315 263.75)" class="st0 st1 st3">+</text>
<circle class="st5" cx="798.2" cy="318" r="18.8"/>
<text transform="matrix(1 0 0 1 788.1315 330.75)" class="st0 st1 st3">+</text>
<circle class="st5" cx="797.2" cy="387" r="18.8"/>
<text transform="matrix(1 0 0 1 787.1315 399.75)" class="st0 st1 st3">+</text>
<text transform="matrix(1 0 0 1 410.25 399.75)" class="st0 st1 st3">+</text>
<circle class="st5" cx="725.5" cy="253" r="18.8"/>
<text transform="matrix(1 0 0 1 715.4832 265.75)" class="st0 st1 st3">+</text>
<circle class="st5" cx="725.5" cy="320" r="18.8"/>
<text transform="matrix(1 0 0 1 715.4832 332.75)" class="st0 st1 st3">+</text>
<circle class="st5" cx="724.5" cy="389" r="18.8"/>
<text transform="matrix(1 0 0 1 714.4832 401.75)" class="st0 st1 st3">+</text>
<rect x="677.5" y="213.5" class="st6" width="441" height="210"/>
<text transform="matrix(1 0 0 1 845.75 185)" class="st7 st1 st2">N</text>
<text transform="matrix(1 0 0 1 882.25 185)" class="st1 st3"> </text>
<text transform="matrix(1 0 0 1 891.25 185)" class="st1 st3">T</text>
<text transform="matrix(1 0 0 1 912.35 185)" class="st1 st3">ype</text>
<circle class="st5" cx="937.3" cy="251" r="18.8"/>
<text transform="matrix(1 0 0 1 929 264)" class="st8 st1 st2">-</text>
<circle class="st5" cx="1009.3" cy="251" r="18.8"/>
<text transform="matrix(1 0 0 1 1001 264)" class="st8 st1 st2">-</text>
<circle class="st5" cx="1083.3" cy="250" r="18.8"/>
<text transform="matrix(1 0 0 1 1075 263)" class="st8 st1 st2">-</text>
<circle class="st5" cx="936.3" cy="318" r="18.8"/>
<text transform="matrix(1 0 0 1 928 331)" class="st8 st1 st2">-</text>
<circle class="st5" cx="1008.3" cy="318" r="18.8"/>
<text transform="matrix(1 0 0 1 1000 331)" class="st8 st1 st2">-</text>
<circle class="st5" cx="1082.3" cy="317" r="18.8"/>
<text transform="matrix(1 0 0 1 1074 330)" class="st8 st1 st2">-</text>
<circle class="st5" cx="936.3" cy="384" r="18.8"/>
<text transform="matrix(1 0 0 1 928 397)" class="st8 st1 st2">-</text>
<ellipse transform="matrix(0.9995 -3.037663e-02 3.037663e-02 0.9995 -7.4383 17.352)" class="st5" cx="567.4" cy="253.5" rx="17.7" ry="18.8"/>
<text transform="matrix(0.9433 0 0 1 559.563 266.5)" class="st8 st1 st2">-</text>
<ellipse transform="matrix(0.9995 -3.039118e-02 3.039118e-02 0.9995 -9.4784 17.3609)" class="st5" cx="566.4" cy="320.5" rx="17.7" ry="18.8"/>
<text transform="matrix(0.9433 0 0 1 558.6196 333.5)" class="st8 st1 st2">-</text>
<ellipse transform="matrix(0.9995 -3.039118e-02 3.039118e-02 0.9995 -11.4842 17.3914)" class="st5" cx="566.4" cy="386.5" rx="17.7" ry="18.8"/>
<text transform="matrix(0.9433 0 0 1 558.6196 399.5)" class="st8 st1 st2">-</text>
<ellipse transform="matrix(0.9995 -3.037663e-02 3.037663e-02 0.9995 -7.3459 19.4379)" class="st5" cx="636.1" cy="251.5" rx="17.7" ry="18.8"/>
<text transform="matrix(0.9433 0 0 1 628.2314 264.5)" class="st8 st1 st2">-</text>
<ellipse transform="matrix(0.9995 -3.039118e-02 3.039118e-02 0.9995 -9.3859 19.4478)" class="st5" cx="635.1" cy="318.5" rx="17.7" ry="18.8"/>
<text transform="matrix(0.9433 0 0 1 627.2881 331.5)" class="st8 st1 st2">-</text>
<ellipse transform="matrix(0.9995 -3.039118e-02 3.039118e-02 0.9995 -11.3916 19.4783)" class="st5" cx="635.1" cy="384.5" rx="17.7" ry="18.8"/>
<text transform="matrix(0.9433 0 0 1 627.2881 397.5)" class="st8 st1 st2">-</text>
<ellipse transform="matrix(0.9995 -3.037663e-02 3.037663e-02 0.9995 -7.4863 15.1986)" class="st5" cx="496.5" cy="254" rx="17.7" ry="18.8"/>
<text transform="matrix(0.9433 0 0 1 488.6831 267)" class="st8 st1 st2">-</text>
<ellipse transform="matrix(0.9995 -3.038761e-02 3.038761e-02 0.9995 -9.5252 15.2078)" class="st5" cx="495.6" cy="321" rx="17.7" ry="18.8"/>
<text transform="matrix(0.9433 0 0 1 487.7397 334)" class="st8 st1 st2">-</text>
<ellipse transform="matrix(0.9995 -3.038761e-02 3.038761e-02 0.9995 -11.5307 15.2382)" class="st5" cx="495.6" cy="387" rx="17.7" ry="18.8"/>
<text transform="matrix(0.9433 0 0 1 487.7397 400)" class="st8 st1 st2">-</text>
<circle class="st5" cx="1008.3" cy="384" r="18.8"/>
<text transform="matrix(1 0 0 1 1000 397)" class="st8 st1 st2">-</text>
<circle class="st5" cx="1082.3" cy="383" r="18.8"/>
<text transform="matrix(1 0 0 1 1074 396)" class="st8 st1 st2">-</text>
<line class="st9" x1="677" y1="211" x2="675.6" y2="421"/>
<line class="st10" x1="456" y1="213.5" x2="454.6" y2="423.5"/>
<line class="st11" x1="902.5" y1="211" x2="901.1" y2="421"/>
<line class="st12" x1="234" y1="316" x2="181.6" y2="316"/>
<line class="st12" x1="1171.5" y1="319.5" x2="1119.1" y2="319.5"/>
<path class="st12" d="M181.6,316.6c0.4,79.4,0.4,158.4,0,237"/>
<path class="st12" d="M726.9,553.9c148.1,0.1,297.1,0.1,445.6-0.4"/>
<path class="st12" d="M181.6,553.6C336,554,490,554,643.8,553.9"/>
<path class="st12" d="M1171.5,319.7c0.5,78.3,0.5,156.3,0,233.9"/>
<line class="st12" x1="643.8" y1="498.1" x2="643.8" y2="604.6"/>
<line class="st12" x1="683" y1="523.6" x2="683" y2="585"/>
<line class="st12" x1="726.9" y1="553.9" x2="683" y2="553.6"/>
<text transform="matrix(1 0 0 1 557.0002 467.6756)" class="st1 st13">Reverse BIAS</text>
<text transform="matrix(1 0 0 1 557.0002 467.6756)" class="st14 st1 st13">Reverse BIAS</text>
<text transform="matrix(1 0 0 1 604.6 544.5828)" class="st15 st1 st16">-</text>
<text transform="matrix(1 0 0 1 198.6205 312.5999)" class="st15 st1 st16">-</text>
<text transform="matrix(1 0 0 1 198.6205 312.5999)" class="st17 st1 st16">-</text>
<rect x="887.6" y="747.1" class="st18" width="4.5" height="1.5"/>
<text transform="matrix(1 0 0 1 701.9498 546.3497)" class="st15 st1 st16">+</text>
<text transform="matrix(1 0 0 1 701.9498 546.3497)" class="st19 st1 st16">+</text>
<text transform="matrix(1 0 0 1 1133.6609 311.4666)" class="st15 st1 st16">+</text>
<text transform="matrix(1 0 0 1 1133.6609 311.4666)" class="st19 st1 st16">+</text>
<rect x="698.6" y="508.6" class="st18" width="30" height="6"/>
<rect x="610.1" y="518" class="st18" width="18" height="0.7"/>
<circle class="st5" cx="867" cy="251" r="18.8"/>
<text transform="matrix(1 0 0 1 856.9324 263.75)" class="st0 st1 st3">+</text>
<circle class="st5" cx="867" cy="318" r="18.8"/>
<text transform="matrix(1 0 0 1 856.9324 330.75)" class="st0 st1 st3">+</text>
<circle class="st5" cx="866" cy="387" r="18.8"/>
<text transform="matrix(1 0 0 1 855.9324 399.75)" class="st0 st1 st3">+</text>
<text transform="matrix(1 0 0 1 243.9997 639.577)"><tspan x="0" y="0" class="st20 st1 st3">Electrons and holes breakdown through the </tspan><tspan x="632.7" y="0" class="st21 st1 st3">P</tspan><tspan x="656.7" y="0" class="st22 st1 st3">N</tspan><tspan x="684" y="0" class="st20 st1 st3"> Junction and </tspan><tspan x="0" y="43.2" class="st20 st1 st3">cross resulting in the current  to flow through the circuit</tspan></text>
</svg>
